<svg xmlns="http://www.w3.org/2000/svg" width="256" height="256" viewBox="0 0 24 24" fill="#000000"><g fill="none" stroke="#000000" stroke-linecap="round" stroke-linejoin="round" stroke-width="1.5"><path d="M18.156 16.314c-2.583 2.085-5.177 1.491-6.469 1.491c-1.292 0-1.373.262-2.321 1.27a1.29 1.29 0 0 1-.424.302a1.223 1.223 0 0 1-1.01 0a1.293 1.293 0 0 1-.433-.303l-2.594-2.568a1.26 1.26 0 0 1-.303-.454a1.297 1.297 0 0 1-.101-.514a1.228 1.228 0 0 1 .404-.937c1.009-.947 1.292-1.128 1.292-2.327c0-1.51-.717-4.372 2.24-7.334a7.43 7.43 0 0 1 2.523-1.662a7.542 7.542 0 0 1 3.028-.524a7.47 7.47 0 0 1 5.45 2.61a7.52 7.52 0 0 1 .8 8.662a7.529 7.529 0 0 1-2.051 2.288zm-13.554-.01l-1.514 1.511a1.007 1.007 0 0 0-.202 1.26l2.11 2.014c.282.292.847.172 1.291-.242l1.423-1.52"/><path d="m15.248 5.873l-5.063 4.273a.33.33 0 0 0-.094.12a.414.414 0 0 0-.036.155a.33.33 0 0 0 .067.136a.3.3 0 0 0 .134.031l2.913.68l-1.26 3.382a.138.138 0 0 0-.014.063l.052.012l.062.014l5.063-4.273a.224.224 0 0 0 .212-.114a.276.276 0 0 0 .037-.155a.33.33 0 0 0-.067-.136a.3.3 0 0 0-.135-.031l-2.902-.677l1.172-3.338a.074.074 0 0 0 .015-.062l-.063-.014z"/></g></svg>
